<svg width="77" height="76" viewBox="0 0 77 76" fill="none" xmlns="http://www.w3.org/2000/svg">
<g clip-path="url(#clip0_5_3)">
<g clip-path="url(#clip1_5_3)">
<path opacity="0.06" d="M55.9787 -0.265625H22.0213C10.4115 -0.265625 1 9.14592 1 20.7557V54.7131C1 66.3228 10.4115 75.7344 22.0213 75.7344H55.9787C67.5885 75.7344 77 66.3228 77 54.7131V20.7557C77 9.14592 67.5885 -0.265625 55.9787 -0.265625Z" fill="#F6CA4F"/>
<path d="M39.0001 63.6132C53.2925 63.6132 64.8788 52.0269 64.8788 37.7344C64.8788 23.442 53.2925 11.8557 39.0001 11.8557C24.7076 11.8557 13.1213 23.442 13.1213 37.7344C13.1213 52.0269 24.7076 63.6132 39.0001 63.6132Z" fill="#FF6D35"/>
<path d="M48.5505 49.4073H29.4495C27.1149 49.4073 25.2048 47.4972 25.2048 45.1626V30.3062C25.2048 27.9716 27.1149 26.0615 29.4495 26.0615H48.5505C50.8851 26.0615 52.7952 27.9716 52.7952 30.3062V45.1626C52.7952 47.4972 50.8851 49.4073 48.5505 49.4073Z" stroke="white" stroke-width="2" stroke-miterlimit="10" stroke-linecap="round" stroke-linejoin="round"/>
<path d="M25.2048 31.3673L39 39.8567L52.7952 31.3673" stroke="white" stroke-width="2" stroke-miterlimit="10" stroke-linecap="round" stroke-linejoin="round"/>
</g>
</g>
<defs>
<clipPath id="clip0_5_3">
<rect width="75.5938" height="75.5938" fill="white" transform="translate(0.71875)"/>
</clipPath>
<clipPath id="clip1_5_3">
<rect width="76" height="76" fill="white" transform="translate(1 -0.265625)"/>
</clipPath>
</defs>
</svg>
