<svg width="159" height="35" viewBox="0 0 159 35" fill="none" xmlns="http://www.w3.org/2000/svg">
<path fill-rule="evenodd" clip-rule="evenodd" d="M5.78906 8.80783C8.44691 5.23279 12.703 2.91667 17.5001 2.91667C22.3253 2.91667 26.6031 5.26012 29.2578 8.87101C29.1447 8.9872 29.0419 9.10762 28.9487 9.22788C28.4624 9.85758 28.0966 10.6686 27.8035 11.4923C27.2132 13.1489 26.763 15.3127 26.3461 17.339L26.3091 17.5211C25.8932 19.5437 25.5066 21.4246 25.0391 22.8209C24.8291 23.4482 24.63 23.8918 24.4534 24.1758C24.2691 23.8895 24.0601 23.4406 23.8388 22.8043C23.3388 21.3679 22.9183 19.4141 22.4726 17.3279L22.4582 17.2596C22.0298 15.2558 21.5755 13.1297 21.0089 11.5022C20.7244 10.6847 20.3752 9.88169 19.9184 9.25784C19.4702 8.64561 18.724 7.95465 17.6327 7.95465C16.5482 7.95465 15.7986 8.6381 15.3439 9.24347C14.8783 9.86331 14.5154 10.663 14.2164 11.4809C13.6142 13.1279 13.1219 15.2825 12.6637 17.3115L12.6164 17.5211C12.1627 19.5311 11.7386 21.4102 11.2572 22.8092C11.0734 23.3435 10.9 23.75 10.743 24.0403C10.5896 23.7513 10.4205 23.3475 10.2417 22.8178C9.77984 21.4486 9.37523 19.6221 8.94068 17.6603L8.86461 17.3169C8.41438 15.2867 7.9259 13.1283 7.31517 11.476C7.01174 10.6551 6.64059 9.85141 6.16031 9.22868C6.05155 9.08773 5.92797 8.94464 5.78906 8.80783ZM4.18045 11.5529C4.30704 11.8028 4.44096 12.1127 4.57941 12.4873C5.10806 13.9174 5.5559 15.8688 6.01708 17.9485L6.10685 18.3537C6.52673 20.2512 6.96352 22.225 7.47801 23.75C7.75165 24.561 8.08212 25.3554 8.5071 25.9728C8.90901 26.5567 9.63003 27.3109 10.7387 27.3109C11.8442 27.3109 12.5669 26.5604 12.9715 25.9791C13.4002 25.3631 13.736 24.5696 14.0152 23.758C14.5503 22.2029 15.006 20.1828 15.4421 18.2495L15.5088 17.9539C15.9786 15.8731 16.431 13.9177 16.9557 12.4824C17.1988 11.8174 17.4264 11.3541 17.6246 11.0667C17.8124 11.3517 18.0269 11.8076 18.2545 12.4611C18.7545 13.8976 19.1746 15.8513 19.6204 17.9375L19.635 18.0058C20.0632 20.0096 20.5176 22.1358 21.0841 23.763C21.3687 24.5809 21.7179 25.3839 22.1747 26.0076C22.623 26.6199 23.3691 27.3109 24.4602 27.3109C25.5571 27.3109 26.3005 26.6136 26.7435 25.9958C27.1933 25.369 27.5316 24.5633 27.8048 23.7468C28.33 22.1784 28.7476 20.1435 29.1458 18.2076L29.2028 17.9265C29.6315 15.8428 30.043 13.8968 30.5511 12.471C30.6611 12.1608 30.7696 11.8963 30.873 11.6742C31.6515 13.4586 32.0833 15.4289 32.0833 17.5001C32.0833 25.5541 25.5544 32.0835 17.5001 32.0835C9.4459 32.0835 2.91668 25.5541 2.91668 17.5001C2.91668 15.3818 3.36829 13.3691 4.18045 11.5529ZM17.5001 0C7.83506 0 0 7.83503 0 17.5001C0 27.165 7.83506 35 17.5001 35C27.1653 35 35 27.165 35 17.5001C35 7.83503 27.1653 0 17.5001 0ZM17.8335 10.8225C17.8335 10.8225 17.8301 10.8257 17.8233 10.8296C17.83 10.8242 17.8335 10.8225 17.8335 10.8225ZM17.4304 10.8245C17.4236 10.8204 17.4202 10.8172 17.4202 10.8172C17.4202 10.8172 17.4236 10.8189 17.4304 10.8245ZM24.2384 24.4526C24.2384 24.4526 24.2416 24.4495 24.2479 24.4454C24.2416 24.4508 24.2384 24.4526 24.2384 24.4526ZM24.6625 24.4409C24.6693 24.445 24.6729 24.4481 24.6729 24.4481C24.6729 24.4481 24.6693 24.4463 24.6625 24.4409ZM10.4398 24.4789C10.4398 24.4789 10.444 24.4743 10.4524 24.4685C10.444 24.4761 10.4398 24.4789 10.4398 24.4789ZM11.0305 24.4711C11.0388 24.477 11.043 24.4815 11.043 24.4815C11.043 24.4815 11.0387 24.4793 11.0305 24.4711Z" fill="#81818B"/>
<path d="M44.3367 28L40 13H43.7986L46.3708 23.7963L49.3613 13H53.6085L56.5995 23.7963L59.2014 13H63L58.6331 28H54.6555L51.4849 16.7802L48.3149 28H44.3367Z" fill="#81818B"/>
<path d="M68.5401 28C67.2693 28 66.2266 27.8073 65.4125 27.4227C64.5988 27.019 63.993 26.4902 63.5955 25.8363C63.1985 25.1824 63 24.4613 63 23.673C63 22.3461 63.5359 21.2691 64.6081 20.4422C65.6804 19.6153 67.2896 19.2018 69.4341 19.2018H73.1872V18.8557C73.1872 17.8749 72.8991 17.1538 72.3233 16.6922C71.7475 16.2307 71.0324 16 70.1788 16C69.404 16 68.7287 16.1826 68.153 16.548C67.5772 16.8942 67.2196 17.4134 67.0807 18.1057H63.3571C63.4566 17.0673 63.8142 16.1634 64.4293 15.3942C65.0652 14.625 65.8794 14.0384 66.8718 13.6346C67.8653 13.2115 68.977 13 70.2083 13C72.3135 13 73.9714 13.5096 75.183 14.5288C76.3942 15.548 77 16.9904 77 18.8557V27.6537H73.7526L73.3956 25.3462C72.9587 26.1153 72.343 26.7497 71.549 27.25C70.7743 27.7498 69.7715 28 68.5401 28ZM69.404 25.1152C70.4965 25.1152 71.3402 24.7689 71.9357 24.0767C72.5513 23.3846 72.939 22.5286 73.0981 21.5095H69.8507C68.8381 21.5095 68.1136 21.6922 67.6762 22.0575C67.2398 22.4035 67.0211 22.8366 67.0211 23.3556C67.0211 23.9133 67.2398 24.346 67.6762 24.6536C68.1136 24.9612 68.6888 25.1152 69.404 25.1152Z" fill="#81818B"/>
<path d="M82.5998 28L77 13H81.1227L84.9997 24.3409L88.8767 13H93L87.3692 28H82.5998Z" fill="#81818B"/>
<path d="M100.618 28C99.1361 28 97.8219 27.692 96.6753 27.0768C95.5293 26.4612 94.6303 25.5959 93.9779 24.4804C93.3255 23.3654 93 22.0768 93 20.6153C93 19.1345 93.3162 17.8172 93.948 16.6634C94.6004 15.5096 95.4896 14.6154 96.6165 13.9807C97.7621 13.3269 99.1061 13 100.648 13C102.09 13 103.365 13.3077 104.472 13.923C105.578 14.5384 106.439 15.3846 107.051 16.4615C107.683 17.5192 108 18.7018 108 20.0095C108 20.2211 107.99 20.4422 107.97 20.6729C107.97 20.9038 107.96 21.1441 107.94 21.3941H96.7646C96.8435 22.5094 97.2391 23.3846 97.9503 24.0193C98.6812 24.6536 99.561 24.971 100.589 24.971C101.359 24.971 102.002 24.8076 102.515 24.4804C103.049 24.1346 103.444 23.6921 103.701 23.1535H107.555C107.278 24.0575 106.814 24.8846 106.162 25.6346C105.529 26.3651 104.739 26.9419 103.79 27.3653C102.861 27.7881 101.804 28 100.618 28ZM100.648 16C99.7194 16 98.8988 16.2596 98.1871 16.7788C97.4758 17.2788 97.0214 18.048 96.8234 19.0865H104.146C104.086 18.1441 103.731 17.3941 103.079 16.8364C102.426 16.2788 101.616 16 100.648 16Z" fill="#81818B"/>
<path d="M110 28V7H113V28H110Z" fill="#81818B"/>
<path d="M123.618 28C122.136 28 120.822 27.692 119.675 27.0768C118.529 26.4612 117.63 25.5959 116.978 24.4804C116.325 23.3654 116 22.0768 116 20.6153C116 19.1345 116.316 17.8172 116.948 16.6634C117.6 15.5096 118.49 14.6154 119.617 13.9807C120.763 13.3269 122.106 13 123.648 13C125.09 13 126.365 13.3077 127.472 13.923C128.578 14.5384 129.439 15.3846 130.051 16.4615C130.683 17.5192 131 18.7018 131 20.0095C131 20.2211 130.99 20.4422 130.97 20.6729C130.97 20.9038 130.96 21.1441 130.94 21.3941H119.765C119.843 22.5094 120.239 23.3846 120.95 24.0193C121.681 24.6536 122.561 24.971 123.589 24.971C124.359 24.971 125.002 24.8076 125.515 24.4804C126.049 24.1346 126.444 23.6921 126.701 23.1535H130.555C130.278 24.0575 129.814 24.8846 129.162 25.6346C128.529 26.3651 127.739 26.9419 126.79 27.3653C125.861 27.7881 124.804 28 123.618 28ZM123.648 16C122.719 16 121.899 16.2596 121.187 16.7788C120.476 17.2788 120.021 18.048 119.823 19.0865H127.146C127.086 18.1441 126.731 17.3941 126.079 16.8364C125.426 16.2788 124.616 16 123.648 16Z" fill="#81818B"/>
<path d="M138.87 28C137.567 28 136.422 27.7979 135.435 27.3942C134.448 26.9709 133.658 26.394 133.066 25.6631C132.474 24.9327 132.118 24.0865 132 23.125H135.819C135.938 23.6823 136.254 24.1635 136.767 24.5672C137.3 24.9518 137.981 25.1441 138.81 25.1441C139.639 25.1441 140.242 24.9808 140.616 24.6536C141.011 24.3269 141.209 23.9516 141.209 23.5288C141.209 22.9132 140.933 22.4996 140.38 22.2882C139.827 22.0575 139.057 21.8364 138.07 21.6249C137.439 21.4902 136.797 21.3268 136.146 21.1345C135.494 20.9422 134.892 20.7018 134.339 20.4134C133.806 20.1056 133.372 19.721 133.036 19.2595C132.701 18.7787 132.533 18.1922 132.533 17.4999C132.533 16.2307 133.046 15.1634 134.073 14.2981C135.119 13.4327 136.579 13 138.455 13C140.192 13 141.574 13.3942 142.6 14.1827C143.646 14.9711 144.268 16.0577 144.466 17.4422H140.883C140.666 16.3846 139.847 15.8557 138.426 15.8557C137.715 15.8557 137.162 15.9904 136.767 16.2596C136.392 16.5288 136.205 16.8653 136.205 17.2692C136.205 17.6922 136.491 18.0288 137.064 18.2788C137.636 18.5288 138.396 18.7595 139.343 18.9711C140.369 19.2018 141.307 19.4614 142.156 19.7499C143.025 20.0191 143.716 20.4326 144.229 20.9903C144.742 21.5287 144.999 22.3074 144.999 23.3267C145.019 24.2116 144.781 25.0092 144.288 25.721C143.795 26.4323 143.084 26.99 142.156 27.3942C141.229 27.7979 140.133 28 138.87 28Z" fill="#81818B"/>
<path d="M152.869 28C151.566 28 150.421 27.7979 149.435 27.3942C148.448 26.9709 147.658 26.394 147.066 25.6631C146.473 24.9327 146.118 24.0865 146 23.125H149.82C149.938 23.6823 150.254 24.1635 150.767 24.5672C151.3 24.9518 151.981 25.1441 152.81 25.1441C153.639 25.1441 154.241 24.9808 154.616 24.6536C155.011 24.3269 155.209 23.9516 155.209 23.5288C155.209 22.9132 154.932 22.4996 154.379 22.2882C153.827 22.0575 153.057 21.8364 152.07 21.6249C151.438 21.4902 150.797 21.3268 150.145 21.1345C149.494 20.9422 148.892 20.7018 148.339 20.4134C147.806 20.1056 147.371 19.721 147.036 19.2595C146.7 18.7787 146.533 18.1922 146.533 17.4999C146.533 16.2307 147.046 15.1634 148.073 14.2981C149.119 13.4327 150.579 13 152.455 13C154.192 13 155.573 13.3942 156.6 14.1827C157.646 14.9711 158.268 16.0577 158.466 17.4422H154.883C154.666 16.3846 153.847 15.8557 152.425 15.8557C151.714 15.8557 151.162 15.9904 150.767 16.2596C150.392 16.5288 150.204 16.8653 150.204 17.2692C150.204 17.6922 150.49 18.0288 151.063 18.2788C151.635 18.5288 152.395 18.7595 153.343 18.9711C154.37 19.2018 155.307 19.4614 156.156 19.7499C157.025 20.0191 157.716 20.4326 158.229 20.9903C158.742 21.5287 158.999 22.3074 158.999 23.3267C159.018 24.2116 158.781 25.0092 158.288 25.721C157.794 26.4323 157.084 26.99 156.156 27.3942C155.228 27.7979 154.133 28 152.869 28Z" fill="#81818B"/>
</svg>
